# xmcd
#
# Track frame offsets: 
#        150
#        20195
#        40587
#        61325
#        80080
#        97222
#        114140
#        135842
#        152755
#        171410
#        194215
#        210960
#        234820
#
# Disc length: 3400 seconds
#
# Revision: 0
# Processed by: cddbd v1.5.2PL0 Copyright (c) Steve Scherf et al.
# Submitted via: ExactAudioCopy v0.99pb5
#
DISCID=a90d460d
DTITLE=Lara Fabian - Lara Fabian
DYEAR=1999
DGENRE=
TTITLE0=Adagio
TTITLE1=Part Of Me
TTITLE2=Givin' Up On You
TTITLE3=You Are My Heart
TTITLE4=I Am Who I Am
TTITLE5=To Love Again
TTITLE6=You're Not From Here
TTITLE7=Till I Get Over You
TTITLE8=Love By Grace
TTITLE9=Yeliel (My Angel)
TTITLE10=I Will Love Again
TTITLE11=Broken Vow
TTITLE12=Adagio (Italian)
EXTD=
EXTT0=
EXTT1=
EXTT2=
EXTT3=
EXTT4=
EXTT5=
EXTT6=
EXTT7=
EXTT8=
EXTT9=
EXTT10=
EXTT11=
EXTT12=
PLAYORDER=
